{"title":"Anina (2013)","uid":14191526,"size":1299485314,"categoryP":"video","categoryS":"hd___movies","magnet":"?xt=urn:btih:c2db0642880e2bde739c47b20b15875438bd8250&amp;dn=Anina+%282013%29&amp;tr=udp%3A%2F%2Ftracker.leechers-paradise.org%3A6969&amp;tr=udp%3A%2F%2Fzer0day.ch%3A1337&amp;tr=udp%3A%2F%2Fopen.demonii.com%3A1337&amp;tr=udp%3A%2F%2Ftracker.coppersurfer.tk%3A6969&amp;tr=udp%3A%2F%2Fexodus.desync.com%3A6969","seeders":2,"leechers":0,"uploader":null,"files":2,"time":1459893067,"description":"https://www.google.com/search?q=anina+pelicula&amp;source=lnms&amp;tbm=isch&amp;sa=X&amp;ved=0ahUKEwjj5YuKofjLAhVFHZAKHTinARsQ_AUICCgC&amp;biw=1366&amp;bih=666\r\n \nhttps://es.wikipedia.org/wiki/Anina_%28pel%C3%ADcula%29\r\n\r\nA fantastical journey into the world of a ten-year-old girl who, following a playground skirmish, is given the weirdest punishment in the history of weird punishments.\r\n\r\nNombre: Anina.2013.DVDRip.Xvid.MP3.CLAN-SUD.avi\r\nCRC-32: aefba8a9\r\n   MD4: e5032bd21f1ec89036b73e4242ef8151\r\n   MD5: d40795c71438f761f3ef762c19cc8489\r\n SHA-1: 4e0ba479ee4296b0078754c914c914ecc0b6a122\r\n\r\n\r\nFormat:AVI\r\nFormat/Info:Audio Video Interleave\r\nFormat profile:OpenDML\r\nFile size:1.21 GiB\r\nDuration:1h 18mn\r\nOverall bit rate:2 212 Kbps\r\nMovie name:Desktop.Title3\r\nWriting application:Lavf54.63.104\r\nOriginal source form/Name:Desktop\r\n\r\nVideo\r\nID:0\r\nFormat:MPEG-4 Visual\r\nFormat profile:Advanced   \r\nFormat settings, BVOP:2\r\nFormat settings, QPel:No\r\nFormat settings, GMC:No warppoints\r\nFormat settings, Matrix:Default (MPEG)\r\nMuxing mode:Packed bitstream\r\nCodec ID:XVID\r\nCodec ID/Hint:XviD\r\nDuration:1h 18mn\r\nBit rate:2 007 Kbps\r\nWidth:720 pixels\r\nHeight:388 pixels\r\nDisplay aspect ratio:1.85:1\r\nFrame rate:23.976 (23976/1000) fps\r\nColor space:YUV\r\nChroma subsampling:4:2:0\r\nBit depth:8 bits\r\nScan type:Progressive\r\nCompression mode:Lossy\r\nBits/(Pixel*Frame):0.300\r\nStream size:1.10 GiB (91%)\r\nWriting library:XviD 64\r\n\r\nAudio\r\nID:1\r\nFormat:AC-3\r\nFormat/Info:Audio Coding 3\r\nMode extension:CM (complete main)\r\nFormat settings, Endianness:Big\r\nCodec ID:2000\r\nDuration:1h 18mn\r\nBit rate mode:Constant\r\nBit rate:192 Kbps\r\nChannel(s):2 channels\r\nChannel positions:Front:L R\r\nSampling rate:48.0 KHz\r\nFrame rate:31.250 fps (1536 spf)\r\nCompression mode:Lossy\r\nStream size:108 MiB (9%)\r\nAlignment:Aligned on interleaves\r\nInterleave, duration:32 ms (0.77 video frame)","torrent":{"xt":"urn:btih:c2db0642880e2bde739c47b20b15875438bd8250","amp;dn":"Anina+%282013%29","amp;tr":["udp%3A%2F%2Ftracker.leechers-paradise.org%3A6969","udp%3A%2F%2Fzer0day.ch%3A1337","udp%3A%2F%2Fopen.demonii.com%3A1337","udp%3A%2F%2Ftracker.coppersurfer.tk%3A6969","udp%3A%2F%2Fexodus.desync.com%3A6969"],"infoHash":"c2db0642880e2bde739c47b20b15875438bd8250","infoHashBuffer":{"type":"Buffer","data":[194,219,6,66,136,14,43,222,115,156,71,178,11,21,135,84,56,189,130,80]},"announce":[],"urlList":[]}}